<svg xmlns="http://www.w3.org/2000/svg" viewBox="0 0 52 52.01"><defs><style>.cls-1{fill:#0194d3;}.cls-2{fill:#f26649;}</style></defs><title>Asset 3</title><g id="Layer_2" data-name="Layer 2"><g id="Layer_1-2" data-name="Layer 1"><path class="cls-1" d="M18.45,0h-13A5.45,5.45,0,0,0,0,5.45v13A5.45,5.45,0,0,0,5.45,23.9h13a5.45,5.45,0,0,0,5.44-5.45v-13A5.45,5.45,0,0,0,18.45,0M19,12.09a2.62,2.62,0,0,1-2.31,2.67h-1.9v1.89A2.28,2.28,0,0,1,12.48,19h-.26c-1.29,0-3.08-1-3.08-2.33V14.76H7.28a2.66,2.66,0,0,1-2.36-2.67v-.25a2.09,2.09,0,0,1,2.36-2H9.14V7.27c0-1.29,1.79-2.35,3.08-2.35h.26a2.3,2.3,0,0,1,2.28,2.35V9.84h1.9a2,2,0,0,1,2.31,2"/><path class="cls-1" d="M18.45,28.11h-13A5.45,5.45,0,0,0,0,33.56v13A5.45,5.45,0,0,0,5.45,52h13a5.45,5.45,0,0,0,5.44-5.45v-13a5.45,5.45,0,0,0-5.44-5.45M17,42a2.35,2.35,0,0,1,0,3.31l-.18.18a2.35,2.35,0,0,1-3.31,0l-1.3-1.3-1.57,1.57a2.35,2.35,0,0,1-3.31,0l-.19-.18a2.35,2.35,0,0,1,0-3.31l1.57-1.57L6.91,38.89a2.33,2.33,0,0,1,0-3.31l.18-.18a2.33,2.33,0,0,1,3.31,0l1.84,1.83,1.56-1.57a2.36,2.36,0,0,1,3.32,0l.18.19a2.35,2.35,0,0,1,0,3.31l-1.57,1.57"/><path class="cls-1" d="M46.56,0h-13a5.45,5.45,0,0,0-5.45,5.45v13a5.44,5.44,0,0,0,5.45,5.44h13A5.44,5.44,0,0,0,52,18.45v-13A5.45,5.45,0,0,0,46.56,0m.52,12.42a2.33,2.33,0,0,1-2.33,2.34H35.37A2.34,2.34,0,0,1,33,12.42v-.24a2.34,2.34,0,0,1,2.34-2.34h9.38a2.33,2.33,0,0,1,2.33,2.34"/><path class="cls-2" d="M46.56,28.11h-13a5.45,5.45,0,0,0-5.45,5.45v13A5.45,5.45,0,0,0,33.56,52h13A5.45,5.45,0,0,0,52,46.56v-13a5.45,5.45,0,0,0-5.44-5.45m.52,15.59c0,1.29-.78,2.68-2.07,2.68H35.48A2.75,2.75,0,0,1,33,43.7v-.06a2.31,2.31,0,0,1,2.45-2.18H45a2,2,0,0,1,2.07,2.18m0-6.71A2.21,2.21,0,0,1,45,39.36H35.48A2.52,2.52,0,0,1,33,36.93v0a2.53,2.53,0,0,1,2.45-2.44H45a2.22,2.22,0,0,1,2.07,2.44"/></g></g></svg>