<svg xmlns="http://www.w3.org/2000/svg" xmlns:xlink="http://www.w3.org/1999/xlink" viewBox="0 0 81.19 88.74"><defs><style>.cls-1{fill:none;}.cls-2{clip-path:url(#clip-path);}.cls-3{fill:#8dc63f;}.cls-4{fill:#fff;}.cls-5{fill:#807f83;}</style><clipPath id="clip-path" transform="translate(-9.12 -2.18)"><rect class="cls-1" width="95.54" height="97.62"/></clipPath></defs><title>Asset 11</title><g id="Layer_2" data-name="Layer 2"><g id="Layer_1-2" data-name="Layer 1"><g class="cls-2"><path class="cls-3" d="M50.08,10.28A36.21,36.21,0,0,0,32,15.07l-.54.3A36.68,36.68,0,0,0,18.71,28.15,36.43,36.43,0,0,0,14.85,56c0,.06,0,.13.05.19A36.47,36.47,0,0,0,59.4,81.86l.29-.07A36.5,36.5,0,0,0,85.17,56.56c.06-.21.11-.43.17-.65A36.4,36.4,0,0,0,50.08,10.28" transform="translate(-9.12 -2.18)"/><path class="cls-4" d="M66.69,48H63.57l-.63,1.84H61.62l3-8.23h1l3,8.23H67.33m-1-3-1.19-3.59h0L63.93,46.9m5.53,1.77h1.18v1.18H69.46Zm2.84-7.05h1.18L75.84,47l2.32-5.36h1.17v8.23H78.09V44.72h0l-1.72,4h-1l-1.72-4h0v5.13H72.3M81,48.67h1.18v1.18H81Z" transform="translate(-9.12 -2.18)"/><path class="cls-4" d="M18.92,41.62h3a2.68,2.68,0,0,1,1.85.58,2.43,2.43,0,0,1,.89,2,2.48,2.48,0,0,1-2.57,2.48h-1.9v3.21H18.92m1.25-4.39H22a1.3,1.3,0,0,0,1.37-1.33,1.23,1.23,0,0,0-.53-1.1A1.49,1.49,0,0,0,22,42.8h-1.8m4,5.87h1.18v1.18H24.21Zm2.85-7.05h1.18L30.6,47l2.31-5.36h1.18v8.23H32.84V44.72h0l-1.72,4h-1l-1.73-4h0v5.13H27.06m8.7-1.18h1.17v1.18H35.76Z" transform="translate(-9.12 -2.18)"/><path class="cls-5" d="M37.11,2.21h.64L39,5.1l1.24-2.89h.64V6.65h-.67V3.88h0L39.29,6h-.57L37.8,3.88h0V6.65h-.67m4.73-4.44h.67V6.65h-.67Zm1.6,0H45A1.52,1.52,0,0,1,46.35,3c.22.37.24.54.24,1.47s-.05,1.17-.25,1.48A1.6,1.6,0,0,1,45,6.65H43.44M44.12,6h.8a.92.92,0,0,0,.82-.38c.15-.23.17-.35.17-1.18s0-1-.2-1.23a.85.85,0,0,0-.79-.37h-.8m3.25-.64H48l2,3.15h0V2.21h.67V6.65h-.64l-2-3.15h0V6.65h-.68m4.27-4.44h.67V6.65h-.67Zm3,2h1.58v.9a1.56,1.56,0,0,1-1.58,1.57,1.58,1.58,0,0,1-1.39-.79c-.14-.26-.19-.4-.19-1.46s0-1.2.19-1.46a1.6,1.6,0,0,1,3,.52h-.71a.91.91,0,0,0-.85-.64.88.88,0,0,0-.69.32c-.17.23-.22.35-.22,1.26s0,1,.22,1.26a.88.88,0,0,0,.69.32.9.9,0,0,0,.91-.94V4.84h-.91m4.8-.13H57.72V6.65h-.67V2.21h.67v1.9h1.76V2.21h.67V6.65h-.67m2.36-3.84H60.63v-.6h3.1v.6H62.52V6.65h-.68" transform="translate(-9.12 -2.18)"/><path class="cls-5" d="M89.58,46.63H90l-.58,1.16h0a.49.49,0,0,1,.21,0c.35,0,.65.23.65.76a.78.78,0,0,1-.8.88.8.8,0,0,1-.77-.83,1,1,0,0,1,.11-.46m.29.45c0,.3.15.45.39.45a.4.4,0,0,0,.39-.45c0-.31-.17-.45-.39-.45s-.39.14-.39.45" transform="translate(-9.12 -2.18)"/><path class="cls-5" d="M10,46.63h.44l-.58,1.16h0a.49.49,0,0,1,.21,0c.35,0,.65.23.65.76a.78.78,0,0,1-.8.88.79.79,0,0,1-.77-.83,1,1,0,0,1,.11-.46m.29.45c0,.3.15.45.39.45a.4.4,0,0,0,.39-.45c0-.31-.18-.45-.39-.45s-.39.14-.39.45" transform="translate(-9.12 -2.18)"/><path class="cls-5" d="M42.59,86.44h.64l2,3.15h0V86.44h.67v4.44h-.64l-2-3.15h0v3.15h-.67M46.9,87.2a1.62,1.62,0,0,1,2.78,0c.14.27.19.4.19,1.46s0,1.2-.19,1.46a1.62,1.62,0,0,1-2.78,0c-.14-.26-.19-.4-.19-1.46s0-1.19.19-1.46m.7,2.72a.88.88,0,0,0,.69.32.84.84,0,0,0,.68-.32c.18-.23.23-.35.23-1.26s-.05-1-.23-1.26a.84.84,0,0,0-.68-.32.88.88,0,0,0-.69.32c-.17.23-.22.35-.22,1.26s0,1,.22,1.26m3.1-2.72a1.62,1.62,0,0,1,2.78,0c.15.27.2.4.2,1.46s0,1.2-.2,1.46a1.62,1.62,0,0,1-2.78,0c-.14-.26-.19-.4-.19-1.46s.05-1.19.19-1.46m.71,2.72a.84.84,0,0,0,.68.32.88.88,0,0,0,.69-.32c.17-.23.22-.35.22-1.26s0-1-.22-1.26a.88.88,0,0,0-.69-.32.84.84,0,0,0-.68.32c-.18.23-.23.35-.23,1.26s0,1,.23,1.26m3.05-3.48h.64l2,3.15h0V86.44h.67v4.44h-.64l-2-3.15h0v3.15h-.67" transform="translate(-9.12 -2.18)"/><polyline class="cls-5" points="77.91 53.38 79.47 53.38 79.47 53.77 78.54 56.12 78.11 56.12 79.03 53.77 78.31 53.77 78.31 54.17 77.91 54.17"/><path class="cls-5" d="M83.54,66.08a.75.75,0,0,1-.28-.56.79.79,0,0,1,.79-.79.78.78,0,0,1,.78.79.74.74,0,0,1-.27.56.7.7,0,0,1,.33.61.84.84,0,0,1-1.68,0,.7.7,0,0,1,.33-.61m.51,1a.43.43,0,0,0,.44-.43.44.44,0,0,0-.44-.44.44.44,0,0,0-.44.44.44.44,0,0,0,.44.43m0-1.21a.4.4,0,1,0-.39-.4.38.38,0,0,0,.39.4" transform="translate(-9.12 -2.18)"/><path class="cls-5" d="M77.91,75.35h-.44L78,74.2h0a.76.76,0,0,1-.21,0c-.35,0-.66-.23-.66-.76a.79.79,0,1,1,1.57,0,1,1,0,0,1-.1.45m-.29-.44c0-.31-.15-.45-.39-.45a.4.4,0,0,0-.39.45c0,.3.17.44.39.44s.39-.14.39-.44" transform="translate(-9.12 -2.18)"/><path class="cls-5" d="M69.43,79.71,69,80v-.41l.39-.29h.39V82h-.39m1.25-2a.78.78,0,1,1,1.55,0v1.21a.78.78,0,1,1-1.55,0m1.16-1.19a.37.37,0,0,0-.38-.42.38.38,0,0,0-.39.42v1.16a.38.38,0,0,0,.39.42.37.37,0,0,0,.38-.42" transform="translate(-9.12 -2.18)"/><path class="cls-5" d="M59.63,83.86l-.39.29v-.42l.39-.28H60v2.73h-.39m1.84-2.32-.38.29v-.42l.38-.28h.4v2.73h-.4" transform="translate(-9.12 -2.18)"/><polyline class="cls-5" points="29.64 81.69 29.25 81.97 29.25 81.56 29.64 81.27 30.03 81.27 30.03 84.01 29.64 84.01"/><path class="cls-5" d="M28.64,81.66l1.06-1.34a.37.37,0,0,0,.1-.27.38.38,0,0,0-.37-.39.4.4,0,0,0-.4.4h-.39a.78.78,0,1,1,1.56,0,.73.73,0,0,1-.17.49l-.88,1.1H30.2V82H28.64" transform="translate(-9.12 -2.18)"/><path class="cls-5" d="M20.72,73.77h.14a.39.39,0,0,0,.42-.39.39.39,0,0,0-.4-.39.37.37,0,0,0-.38.33h-.39a.78.78,0,0,1,1.56.05.63.63,0,0,1-.29.57.7.7,0,0,1,.32.6.8.8,0,0,1-.83.84.79.79,0,0,1-.78-.71h.4a.4.4,0,0,0,.4.31.41.41,0,0,0,.42-.43.41.41,0,0,0-.42-.43h-.17" transform="translate(-9.12 -2.18)"/><polyline class="cls-5" points="4.88 64.54 5.79 62.58 6.23 62.58 5.3 64.54 6.02 64.54 6.02 63.75 6.41 63.75 6.41 64.54 6.63 64.54 6.63 64.91 6.41 64.91 6.41 65.31 6.02 65.31 6.02 64.91 4.88 64.91"/><path class="cls-5" d="M10.28,55.56h1.46V56H10.65v.62a.64.64,0,0,1,.44-.15.67.67,0,0,1,.49.2c.15.16.22.29.22.75a.89.89,0,0,1-.17.65.79.79,0,0,1-.59.3.77.77,0,0,1-.81-.72h.4a.37.37,0,0,0,.39.32c.38,0,.38-.33.38-.58s-.07-.53-.39-.53a.39.39,0,0,0-.36.22h-.37" transform="translate(-9.12 -2.18)"/><polyline class="cls-5" points="50.98 6.36 50.59 6.65 50.59 6.23 50.98 5.95 51.37 5.95 51.37 8.68 50.98 8.68"/><path class="cls-5" d="M68.84,14.35,69.91,13a.43.43,0,0,0,.1-.27.38.38,0,0,0-.38-.39.4.4,0,0,0-.4.4h-.39a.78.78,0,1,1,1.56,0,.75.75,0,0,1-.16.48l-.88,1.11h1v.39H68.84" transform="translate(-9.12 -2.18)"/><path class="cls-5" d="M77.86,19.37H78a.39.39,0,0,0,.42-.39.39.39,0,0,0-.4-.4.38.38,0,0,0-.38.33h-.39a.78.78,0,0,1,1.56.06.63.63,0,0,1-.29.57.67.67,0,0,1,.32.59A.8.8,0,0,1,78,21a.77.77,0,0,1-.77-.7h.39a.4.4,0,0,0,.4.31.42.42,0,0,0,.42-.43.41.41,0,0,0-.42-.44h-.17" transform="translate(-9.12 -2.18)"/><polyline class="cls-5" points="74.2 26.6 75.11 24.64 75.55 24.64 74.62 26.6 75.34 26.6 75.34 25.82 75.73 25.82 75.73 26.6 75.95 26.6 75.95 26.97 75.73 26.97 75.73 27.38 75.34 27.38 75.34 26.97 74.2 26.97"/><path class="cls-5" d="M87,36.17h1.46v.39H87.4v.62a.64.64,0,0,1,.44-.15.67.67,0,0,1,.49.2c.15.16.22.29.22.74a.9.9,0,0,1-.17.66.79.79,0,0,1-.6.3.78.78,0,0,1-.8-.72h.39a.38.38,0,0,0,.4.32c.38,0,.38-.33.38-.59s-.07-.52-.39-.52a.39.39,0,0,0-.36.22H87" transform="translate(-9.12 -2.18)"/><polyline class="cls-5" points="1.16 33.99 2.72 33.99 2.72 34.38 1.79 36.73 1.36 36.73 2.28 34.38 1.56 34.38 1.56 34.78 1.16 34.78"/><path class="cls-5" d="M14.66,28.14a.73.73,0,0,1-.27-.55.79.79,0,1,1,1.57,0,.73.73,0,0,1-.27.55.74.74,0,0,1,.32.61.84.84,0,0,1-1.67,0,.71.71,0,0,1,.32-.61m.51,1.05a.45.45,0,0,0,.45-.44.45.45,0,0,0-.89,0,.44.44,0,0,0,.44.44m0-1.22a.39.39,0,1,0,0-.78.39.39,0,0,0,0,.78" transform="translate(-9.12 -2.18)"/><path class="cls-5" d="M21.06,21h-.44l.58-1.16h0a.48.48,0,0,1-.2,0c-.35,0-.66-.23-.66-.76A.79.79,0,1,1,21.9,19a1,1,0,0,1-.1.46M21.51,19c0-.31-.16-.45-.39-.45a.41.41,0,0,0-.4.45.39.39,0,0,0,.4.45c.21,0,.39-.14.39-.45" transform="translate(-9.12 -2.18)"/><path class="cls-5" d="M28.19,13l-.39.29v-.42l.39-.28h.39v2.73h-.39m1.24-2a.78.78,0,1,1,1.56,0v1.21a.78.78,0,1,1-1.56,0m1.17-1.19a.39.39,0,1,0-.78,0v1.16a.39.39,0,1,0,.78,0" transform="translate(-9.12 -2.18)"/><path class="cls-5" d="M37.25,8.54l-.39.28V8.41l.39-.28h.39v2.73h-.39m1.84-2.32-.38.28V8.41l.38-.28h.4v2.73h-.4" transform="translate(-9.12 -2.18)"/></g></g></g></svg>