<svg xmlns="http://www.w3.org/2000/svg" xmlns:xlink="http://www.w3.org/1999/xlink" viewBox="0 0 82.24 88.41"><defs><style>.cls-1{fill:none;}.cls-2{clip-path:url(#clip-path);}.cls-3{fill:#fdbb30;}.cls-4{fill:#8dc63f;}.cls-5{fill:#f26649;}.cls-6{fill:#807f83;}.cls-7{fill:#f8971d;}.cls-8{fill:#fff;}</style><clipPath id="clip-path" transform="translate(-5.33 -2.66)"><rect class="cls-1" width="89.76" height="93.16"/></clipPath></defs><title>Asset 10</title><g id="Layer_2" data-name="Layer 2"><g id="Layer_1-2" data-name="Layer 1"><g class="cls-2"><path class="cls-3" d="M11.56,56.86A36.43,36.43,0,0,0,56,82.51L46.75,47.18" transform="translate(-5.33 -2.66)"/><path class="cls-4" d="M81.93,56.58A36.36,36.36,0,0,0,46.71,11,35.35,35.35,0,0,0,20.39,22.18l26.36,25" transform="translate(-5.33 -2.66)"/><path class="cls-5" d="M20.39,22.18c-4.78,5.05-9.83,11.43-10.09,25.17a33.8,33.8,0,0,0,1.21,9.32,1.8,1.8,0,0,0,.05.19l35.19-9.68" transform="translate(-5.33 -2.66)"/><path class="cls-4" d="M81.64,38.35a37,37,0,0,0-3.46-8.64,36.34,36.34,0,0,0-49.52-14A35.36,35.36,0,0,0,11.14,38.3l35.19,9" transform="translate(-5.33 -2.66)"/><path class="cls-5" d="M46.75,47.18,56,82.51l.28-.07A36.47,36.47,0,0,0,81.76,57.23l.17-.65" transform="translate(-5.33 -2.66)"/><path class="cls-6" d="M33.89,2.7h.63l1.27,2.88L37,2.7h.63V7.13H37V4.36h0l-.93,2.13H35.5l-.93-2.13h0V7.13h-.67M38.61,2.7h.67V7.12h-.67Zm1.6,0h1.55a1.52,1.52,0,0,1,1.36.74c.21.38.23.54.23,1.47s-.05,1.17-.25,1.48a1.58,1.58,0,0,1-1.38.74H40.21m.68-.64h.8a.92.92,0,0,0,.82-.38c.15-.23.17-.35.17-1.17s0-1-.2-1.24a.86.86,0,0,0-.79-.37h-.8m3.25-.63h.63l2,3.14h0V2.7h.67V7.13h-.63L44.82,4h0V7.13h-.67M48.4,2.7h.67V7.12H48.4Zm3,2H53v.9a1.56,1.56,0,0,1-1.58,1.57,1.58,1.58,0,0,1-1.39-.79c-.14-.26-.2-.4-.2-1.46s.06-1.19.2-1.45a1.57,1.57,0,0,1,1.39-.8A1.55,1.55,0,0,1,53,4h-.71a.89.89,0,0,0-.84-.64.88.88,0,0,0-.69.32c-.17.23-.22.35-.22,1.26s0,1,.22,1.26a.88.88,0,0,0,.69.32.9.9,0,0,0,.91-.94V5.32h-.91m4.79-.13H54.48V7.13H53.8V2.7h.68V4.59h1.75V2.7h.67V7.13h-.67m2.36-3.84H57.38V2.7h3.1v.59H59.27V7.13h-.68" transform="translate(-5.33 -2.66)"/><path class="cls-6" d="M86.51,47h.43l-.57,1.16h0a.45.45,0,0,1,.2,0c.35,0,.66.23.66.76a.79.79,0,1,1-1.57,0,1,1,0,0,1,.1-.45m.29.45c0,.3.16.45.39.45a.41.41,0,0,0,.4-.45.39.39,0,0,0-.4-.45c-.21,0-.39.14-.39.45" transform="translate(-5.33 -2.66)"/><path class="cls-6" d="M6.17,47h.44L6,48.18H6a.49.49,0,0,1,.21,0c.34,0,.65.23.65.76a.79.79,0,1,1-1.57,0,1,1,0,0,1,.11-.45m.28.45c0,.3.16.45.4.45a.4.4,0,0,0,.39-.45c0-.31-.18-.45-.39-.45a.39.39,0,0,0-.4.45" transform="translate(-5.33 -2.66)"/><path class="cls-6" d="M38.77,86.6h.63l2,3.15h0V86.6h.68V91h-.64l-2-3.15h0V91h-.67m4.3-3.67a1.62,1.62,0,0,1,2.78,0c.14.26.19.39.19,1.46s0,1.19-.19,1.45a1.61,1.61,0,0,1-2.78,0c-.14-.26-.19-.39-.19-1.45s0-1.2.19-1.46m.71,2.71a.82.82,0,0,0,.68.33.85.85,0,0,0,.69-.33c.17-.22.22-.34.22-1.25s0-1-.22-1.26a.88.88,0,0,0-.69-.32.84.84,0,0,0-.68.32c-.18.22-.23.35-.23,1.26s.05,1,.23,1.25m3.09-2.71a1.62,1.62,0,0,1,2.78,0c.14.26.19.39.19,1.46s-.05,1.19-.19,1.45a1.61,1.61,0,0,1-2.78,0c-.14-.26-.19-.39-.19-1.45s0-1.2.19-1.46m.71,2.71a.87.87,0,0,0,1.36,0c.18-.22.23-.34.23-1.25s-.05-1-.23-1.26a.88.88,0,0,0-1.36,0c-.18.22-.23.35-.23,1.26s0,1,.23,1.25m3.05-3.47h.63l2,3.15h0V86.6H54V91h-.63l-2-3.15h0V91h-.67" transform="translate(-5.33 -2.66)"/><polyline class="cls-7" points="79.23 52.7 82.24 52.7 82.24 53.46 80.45 58 79.6 58 81.39 53.46 79.99 53.46 79.99 54.23 79.23 54.23"/><path class="cls-6" d="M80.27,66.45A.73.73,0,0,1,80,65.9a.77.77,0,0,1,.78-.79.78.78,0,0,1,.79.79.74.74,0,0,1-.28.55.72.72,0,0,1,.33.61.82.82,0,0,1-.84.82.81.81,0,0,1-.83-.82.71.71,0,0,1,.32-.61m.51,1a.43.43,0,1,0,0-.86.43.43,0,1,0,0,.86m0-1.21a.39.39,0,1,0-.39-.39.37.37,0,0,0,.39.39" transform="translate(-5.33 -2.66)"/><path class="cls-6" d="M11.65,27.85a.68.68,0,0,1-.28-.55.79.79,0,1,1,1.57,0,.7.7,0,0,1-.27.55.71.71,0,0,1,.32.61.84.84,0,0,1-1.67,0,.72.72,0,0,1,.33-.61m.51,1a.44.44,0,0,0,.44-.44.45.45,0,0,0-.89,0,.45.45,0,0,0,.45.44m0-1.22a.39.39,0,1,0-.39-.39.37.37,0,0,0,.39.39" transform="translate(-5.33 -2.66)"/><path class="cls-6" d="M74.64,75.72H74.2l.58-1.16h0a.48.48,0,0,1-.2,0c-.35,0-.66-.23-.66-.76a.79.79,0,1,1,1.57,0,1,1,0,0,1-.1.45m-.29-.45c0-.31-.16-.45-.39-.45a.41.41,0,0,0-.4.45.39.39,0,0,0,.4.45c.21,0,.39-.14.39-.45" transform="translate(-5.33 -2.66)"/><path class="cls-6" d="M66.17,80.07l-.38.28v-.41l.38-.29h.4v2.74h-.4m1.25-2a.76.76,0,0,1,.78-.79.76.76,0,0,1,.77.79v1.2a.75.75,0,0,1-.77.79.76.76,0,0,1-.78-.79m1.16-1.18A.37.37,0,0,0,68.2,80a.38.38,0,0,0-.39.42V81.6a.38.38,0,0,0,.39.42.37.37,0,0,0,.38-.42" transform="translate(-5.33 -2.66)"/><path class="cls-6" d="M25.93,12.47l-.38.28v-.41l.38-.28h.4v2.73h-.4m1.25-2a.78.78,0,1,1,1.55,0V14a.78.78,0,1,1-1.55,0m1.16-1.18a.37.37,0,0,0-.38-.42.38.38,0,0,0-.39.42V14a.38.38,0,0,0,.39.42.37.37,0,0,0,.38-.42" transform="translate(-5.33 -2.66)"/><path class="cls-7" d="M57.59,85.25l-.75.55V85l.75-.55h.76v5.3h-.76m3.58-4.49-.76.55V85l.76-.55h.76v5.3h-.76" transform="translate(-5.33 -2.66)"/><polyline class="cls-6" points="30.21 81.56 29.82 81.85 29.82 81.43 30.21 81.15 30.6 81.15 30.6 83.88 30.21 83.88"/><path class="cls-6" d="M25.42,82l1.07-1.34a.41.41,0,0,0,.1-.27.39.39,0,0,0-.38-.39.4.4,0,0,0-.4.4h-.39a.78.78,0,1,1,1.56,0,.69.69,0,0,1-.17.48L25.93,82H27v.39H25.42" transform="translate(-5.33 -2.66)"/><path class="cls-6" d="M17.51,74.14h.14a.39.39,0,0,0,.42-.39.4.4,0,0,0-.4-.4.38.38,0,0,0-.38.33H16.9a.78.78,0,0,1,1.56.06.63.63,0,0,1-.29.57.67.67,0,0,1,.32.59.8.8,0,0,1-.83.84.78.78,0,0,1-.78-.7h.4a.4.4,0,0,0,.4.31.42.42,0,0,0,.42-.43.41.41,0,0,0-.42-.44h-.17" transform="translate(-5.33 -2.66)"/><polyline class="cls-6" points="5.46 64.43 6.38 62.47 6.82 62.47 5.89 64.43 6.61 64.43 6.61 63.64 7 63.64 7 64.43 7.22 64.43 7.22 64.8 7 64.8 7 65.2 6.61 65.2 6.61 64.8 5.46 64.8"/><path class="cls-7" d="M5.72,56.58H8.54v.76H6.43v1.2a1.29,1.29,0,0,1,.85-.29,1.38,1.38,0,0,1,1,.38c.29.32.41.58.41,1.46a1.77,1.77,0,0,1-.32,1.27,1.5,1.5,0,0,1-1.15.56,1.47,1.47,0,0,1-1.55-1.37h.76a.71.71,0,0,0,.76.61c.74,0,.74-.64.74-1.13s-.14-1-.76-1a.74.74,0,0,0-.69.44H5.72" transform="translate(-5.33 -2.66)"/><polyline class="cls-6" points="51.53 6.31 51.14 6.59 51.14 6.18 51.53 5.89 51.92 5.89 51.92 8.63 51.53 8.63"/><path class="cls-6" d="M65.58,14.77l1.07-1.34a.37.37,0,0,0,.1-.27.38.38,0,0,0-.37-.39.4.4,0,0,0-.4.4h-.4a.79.79,0,1,1,1.57,0,.72.72,0,0,1-.17.48l-.88,1.1h1.05v.39H65.58" transform="translate(-5.33 -2.66)"/><path class="cls-6" d="M74.6,19.78h.13a.39.39,0,0,0,.43-.39.4.4,0,0,0-.4-.39.38.38,0,0,0-.38.33H74a.78.78,0,0,1,.75-.72.79.79,0,0,1,.81.78.63.63,0,0,1-.29.56.7.7,0,0,1,.32.6.81.81,0,0,1-.83.84.78.78,0,0,1-.78-.7h.39a.43.43,0,0,0,.41.31.42.42,0,0,0,.42-.44.41.41,0,0,0-.43-.43H74.6" transform="translate(-5.33 -2.66)"/><polyline class="cls-6" points="74.72 26.53 75.64 24.57 76.07 24.57 75.15 26.53 75.86 26.53 75.86 25.74 76.25 25.74 76.25 26.53 76.47 26.53 76.47 26.9 76.25 26.9 76.25 27.3 75.86 27.3 75.86 26.9 74.72 26.9"/><path class="cls-6" d="M83.76,36.57h1.46V37H84.13v.62a.64.64,0,0,1,.44-.15.67.67,0,0,1,.49.2c.15.16.21.29.21.75a.89.89,0,0,1-.17.65.78.78,0,0,1-1.39-.42h.39a.38.38,0,0,0,.39.32c.39,0,.39-.33.39-.59s-.07-.52-.4-.52a.37.37,0,0,0-.35.23h-.37" transform="translate(-5.33 -2.66)"/><path class="cls-6" d="M34,9l-.39.28V8.84L34,8.55h.39v2.74H34M35.87,9l-.39.28V8.84l.39-.29h.39v2.74h-.39" transform="translate(-5.33 -2.66)"/><path class="cls-8" d="M68.45,49.5H65.93L65.42,51H64.36l2.41-6.63h.84L70,51H69m-.81-2.37-1-2.9h0l-1,2.9M70.68,50h.95V51h-.95ZM73,44.35h1l1.9,4.32,1.87-4.32h1V51h-1V46.84h0L76.23,50h-.84L74,46.84h0V51H73M80,50h1V51H80Z" transform="translate(-5.33 -2.66)"/><path class="cls-8" d="M12.78,44.35h2.41a2.17,2.17,0,0,1,1.49.46,2,2,0,0,1-1.36,3.58H13.79V51h-1m1-3.54h1.49a1,1,0,0,0,1.11-1.07,1,1,0,0,0-.43-.89,1.13,1.13,0,0,0-.71-.18H13.79M17.06,50h1V51h-1Zm2.29-5.68h.95l1.91,4.32,1.86-4.32H25V51H24V46.84h0L22.61,50h-.84l-1.39-3.19h0V51h-1m7-.95h.95V51h-.95Z" transform="translate(-5.33 -2.66)"/><polyline class="cls-7" points="0.88 32.64 3.9 32.64 3.9 33.4 2.1 37.94 1.25 37.94 3.05 33.4 1.64 33.4 1.64 34.16 0.88 34.16"/><path class="cls-6" d="M19.22,20.85h-.44l.58-1.16h0a.49.49,0,0,1-.21,0c-.34,0-.65-.23-.65-.76a.79.79,0,1,1,1.57,0,1.14,1.14,0,0,1-.1.45m-.29-.45c0-.3-.16-.45-.39-.45a.41.41,0,0,0-.4.45.39.39,0,0,0,.4.45c.21,0,.39-.14.39-.45" transform="translate(-5.33 -2.66)"/></g></g></g></svg>