<svg xmlns="http://www.w3.org/2000/svg" xmlns:xlink="http://www.w3.org/1999/xlink" viewBox="0 0 82.19 88.51"><defs><style>.cls-1{fill:none;}.cls-2{clip-path:url(#clip-path);}.cls-3{fill:#fdbb30;}.cls-4{fill:#8dc63f;}.cls-5{fill:#807f83;}.cls-6{fill:#fff;}.cls-7{fill:#f26649;}.cls-8{fill:#f8971d;}</style><clipPath id="clip-path" transform="translate(-5.45 -2.51)"><rect class="cls-1" width="90.66" height="93.61"/></clipPath></defs><title>Asset 9</title><g id="Layer_2" data-name="Layer 2"><g id="Layer_1-2" data-name="Layer 1"><g class="cls-2"><path class="cls-3" d="M20.38,21.79c-4.12,4.65-10,10.1-10.33,25.48a42.3,42.3,0,0,0,1.21,9.32l35.28-8.88" transform="translate(-5.45 -2.51)"/><path class="cls-4" d="M20.38,21.79c-3.26,3.69-7.62,7.87-9.46,17.08,10.41,2.84,35.62,8.84,35.62,8.84" transform="translate(-5.45 -2.51)"/><path class="cls-3" d="M81.59,57.15,46.54,47.71l9.57,34.68A36.48,36.48,0,0,0,81.59,57.15" transform="translate(-5.45 -2.51)"/><path class="cls-5" d="M80.37,66.37a.7.7,0,0,1-.27-.55.78.78,0,0,1,.78-.79.79.79,0,0,1,.79.79.71.71,0,0,1-.28.55.73.73,0,0,1,.33.62.82.82,0,0,1-.84.82.81.81,0,0,1-.83-.82.72.72,0,0,1,.32-.62m.51,1a.44.44,0,0,0,.44-.44.43.43,0,0,0-.44-.43.44.44,0,0,0-.44.43.44.44,0,0,0,.44.44m0-1.22a.39.39,0,1,0-.39-.39.37.37,0,0,0,.39.39" transform="translate(-5.45 -2.51)"/><path class="cls-5" d="M74.74,75.65H74.3l.57-1.16h0a.49.49,0,0,1-.21,0c-.35,0-.65-.23-.65-.76a.78.78,0,0,1,.8-.88.8.8,0,0,1,.77.83,1,1,0,0,1-.11.46m-.29-.45c0-.31-.15-.45-.39-.45a.4.4,0,0,0-.39.45c0,.31.18.45.39.45s.39-.14.39-.45" transform="translate(-5.45 -2.51)"/><path class="cls-5" d="M66.26,80l-.39.28v-.42l.39-.28h.39v2.74h-.39m1.25-2a.78.78,0,1,1,1.55,0v1.2a.78.78,0,1,1-1.55,0m1.16-1.18a.39.39,0,1,0-.77,0v1.16a.39.39,0,1,0,.77,0" transform="translate(-5.45 -2.51)"/><path class="cls-5" d="M24.21,12.27l-.39.28v-.41l.39-.29h.39v2.74h-.39m1.24-2a.78.78,0,1,1,1.56,0v1.2a.78.78,0,1,1-1.56,0m1.16-1.18a.37.37,0,0,0-.38-.42.38.38,0,0,0-.39.42V13.8a.38.38,0,0,0,.39.42.37.37,0,0,0,.38-.42" transform="translate(-5.45 -2.51)"/><polyline class="cls-5" points="30.14 81.65 29.75 81.94 29.75 81.52 30.14 81.24 30.53 81.24 30.53 83.97 30.14 83.97"/><path class="cls-5" d="M25.46,82l1.07-1.34a.43.43,0,0,0,.1-.27.39.39,0,0,0-.38-.39.4.4,0,0,0-.4.39h-.39a.77.77,0,0,1,.76-.78.78.78,0,0,1,.8.78.71.71,0,0,1-.17.48L26,81.93H27v.4H25.46" transform="translate(-5.45 -2.51)"/><path class="cls-5" d="M17.54,74.07h.14a.39.39,0,0,0,.42-.39.39.39,0,0,0-.4-.4.39.39,0,0,0-.38.33h-.39a.78.78,0,0,1,1.56.06.6.6,0,0,1-.29.56.7.7,0,0,1,.32.6.8.8,0,0,1-.83.84.78.78,0,0,1-.78-.7h.4a.4.4,0,0,0,.41.31.44.44,0,0,0,0-.87h-.17" transform="translate(-5.45 -2.51)"/><polyline class="cls-5" points="5.37 64.5 6.29 62.54 6.72 62.54 5.8 64.5 6.51 64.5 6.51 63.71 6.91 63.71 6.91 64.5 7.13 64.5 7.13 64.87 6.91 64.87 6.91 65.28 6.51 65.28 6.51 64.87 5.37 64.87"/><polyline class="cls-5" points="51.48 6.32 51.09 6.6 51.09 6.18 51.48 5.9 51.88 5.9 51.88 8.64 51.48 8.64"/><path class="cls-5" d="M65.67,14.64l1.07-1.34a.43.43,0,0,0,.1-.27.38.38,0,0,0-.38-.39.4.4,0,0,0-.4.39h-.39a.78.78,0,1,1,1.56,0,.75.75,0,0,1-.16.48l-.88,1.1h1V15H65.67" transform="translate(-5.45 -2.51)"/><path class="cls-5" d="M74.69,19.65h.14a.38.38,0,0,0,.42-.38.39.39,0,0,0-.4-.4.39.39,0,0,0-.38.33h-.39a.78.78,0,0,1,1.56.06.6.6,0,0,1-.29.56.7.7,0,0,1,.32.6.8.8,0,0,1-.83.84.78.78,0,0,1-.78-.7h.4a.41.41,0,0,0,.41.31.42.42,0,0,0,.41-.44.41.41,0,0,0-.42-.43h-.17" transform="translate(-5.45 -2.51)"/><polyline class="cls-5" points="74.7 26.56 75.62 24.6 76.06 24.6 75.13 26.56 75.85 26.56 75.85 25.77 76.24 25.77 76.24 26.56 76.46 26.56 76.46 26.93 76.24 26.93 76.24 27.33 75.85 27.33 75.85 26.93 74.7 26.93"/><path class="cls-5" d="M83.86,36.46h1.46v.39H84.23v.62a.64.64,0,0,1,.44-.15.71.71,0,0,1,.49.19c.15.17.22.3.22.76a.89.89,0,0,1-.17.65.79.79,0,0,1-1.4-.42h.4a.37.37,0,0,0,.39.32c.38,0,.38-.33.38-.59s-.07-.52-.39-.52a.39.39,0,0,0-.36.22h-.37" transform="translate(-5.45 -2.51)"/><path class="cls-5" d="M11.48,28.43a.74.74,0,0,1-.27-.56.79.79,0,1,1,1.57,0,.74.74,0,0,1-.27.56.74.74,0,0,1,.32.61.84.84,0,0,1-1.67,0,.71.71,0,0,1,.32-.61m.51,1a.43.43,0,1,0-.44-.43.44.44,0,0,0,.44.43m0-1.21a.4.4,0,1,0,0-.79.4.4,0,0,0,0,.79" transform="translate(-5.45 -2.51)"/><path class="cls-5" d="M34.07,8.82l-.39.29V8.69l.39-.28h.39v2.74h-.39m1.85-2.33-.39.29V8.69l.39-.28h.39v2.74h-.39" transform="translate(-5.45 -2.51)"/><path class="cls-5" d="M33.74,2.55h.63l1.27,2.89,1.25-2.89h.64V7h-.68V4.22h0l-.93,2.13h-.56l-.93-2.13h0V7h-.67m4.72-4.43h.68V7h-.68Zm1.61,0h1.55A1.51,1.51,0,0,1,43,3.3c.22.37.23.54.23,1.47S43.16,5.94,43,6.25A1.6,1.6,0,0,1,41.58,7H40.07m.68-.63h.8A.93.93,0,0,0,42.37,6c.15-.22.17-.35.17-1.17s0-1-.2-1.23a.86.86,0,0,0-.79-.38h-.8M44,2.55h.64l2,3.15h0V2.55h.67V7h-.64l-2-3.15h0V7H44m4.27-4.43h.67V7h-.67Zm3,2h1.58v.9a1.59,1.59,0,0,1-3,.78c-.15-.26-.2-.39-.2-1.45s.05-1.2.2-1.46a1.59,1.59,0,0,1,2.95.51h-.71a.91.91,0,0,0-.85-.64.85.85,0,0,0-.69.33c-.17.22-.22.35-.22,1.26s.05,1,.22,1.25a.85.85,0,0,0,.69.33.9.9,0,0,0,.91-.94V5.17h-.91M56.11,5H54.35V7h-.67V2.55h.67v1.9h1.76V2.55h.67V7h-.67m2.36-3.83H57.26v-.6h3.1v.6H59.15V7h-.68" transform="translate(-5.45 -2.51)"/><path class="cls-5" d="M86.81,46.92h.44l-.58,1.16h0a.49.49,0,0,1,.21,0c.34,0,.65.23.65.76a.79.79,0,1,1-1.57.05,1,1,0,0,1,.11-.46m.28.45c0,.31.16.45.4.45a.4.4,0,0,0,.39-.45c0-.31-.18-.45-.39-.45a.39.39,0,0,0-.4.45" transform="translate(-5.45 -2.51)"/><path class="cls-5" d="M6.29,46.92h.44l-.58,1.16h0a.45.45,0,0,1,.2,0c.35,0,.66.23.66.76a.79.79,0,1,1-1.57.05,1,1,0,0,1,.1-.46m.29.45c0,.31.16.45.39.45a.4.4,0,0,0,.4-.45.39.39,0,0,0-.4-.45c-.21,0-.39.14-.39.45" transform="translate(-5.45 -2.51)"/><path class="cls-5" d="M38.92,86.55h.64l2,3.15h0V86.55h.67V91h-.63l-2-3.15h0V91h-.68m4.31-3.68a1.62,1.62,0,0,1,2.78,0c.14.27.19.4.19,1.46S46.15,90,46,90.22a1.61,1.61,0,0,1-2.78,0c-.14-.26-.19-.39-.19-1.46s.05-1.19.19-1.46m.7,2.72a.9.9,0,0,0,1.38,0c.17-.22.22-.35.22-1.26s-.05-1-.22-1.26a.9.9,0,0,0-1.38,0c-.17.23-.22.35-.22,1.26s0,1,.22,1.26M47,87.3a1.62,1.62,0,0,1,2.78,0c.15.27.2.4.2,1.46s0,1.2-.2,1.46a1.61,1.61,0,0,1-2.78,0c-.14-.26-.19-.39-.19-1.46s0-1.19.19-1.46M47.74,90a.89.89,0,0,0,1.37,0c.17-.22.22-.35.22-1.26s0-1-.22-1.26a.89.89,0,0,0-1.37,0c-.18.23-.23.35-.23,1.26s.05,1,.23,1.26m3-3.47h.64l2,3.15h0V86.55h.67V91h-.63l-2-3.15h0V91h-.68" transform="translate(-5.45 -2.51)"/><path class="cls-4" d="M81.59,57.15A36.43,36.43,0,0,0,46.5,10.86C39.71,10.86,28,14,20.38,21.79L46.54,47.71" transform="translate(-5.45 -2.51)"/><path class="cls-6" d="M68.4,49.37H65.87l-.51,1.49H64.3l2.42-6.65h.84L70,50.86H68.91m-.8-2.38-1-2.9h0l-1,2.9m4.47,1.42h1v1h-1Zm2.3-5.69h.95l1.9,4.33,1.87-4.33h.95v6.65h-1V46.72h0L76.19,49.9h-.85L74,46.72h0v4.14h-1m7-1h1v1H80Z" transform="translate(-5.45 -2.51)"/><path class="cls-6" d="M12.67,44.21h2.41a2.18,2.18,0,0,1,1.49.47,2,2,0,0,1-1.36,3.58H13.68v2.6h-1m1-3.55h1.49a1,1,0,0,0,1.11-1.07,1,1,0,0,0-.43-.89,1.16,1.16,0,0,0-.72-.18H13.68m3.26,4.73h1v1h-1Zm2.3-5.69h1l1.91,4.33L24,44.21h1v6.65h-1V46.72h0L22.5,49.9h-.84l-1.39-3.18h0v4.14h-1m7-1h1v1h-1Z" transform="translate(-5.45 -2.51)"/><path class="cls-7" d="M11.26,56.59a36.51,36.51,0,0,0,44.85,25.8L46.54,47.71" transform="translate(-5.45 -2.51)"/><polyline class="cls-8" points="79.17 52.76 82.19 52.76 82.19 53.52 80.39 58.07 79.54 58.07 81.34 53.52 79.93 53.52 79.93 54.29 79.17 54.29"/><polyline class="cls-8" points="0.59 32.84 3.61 32.84 3.61 33.6 1.81 38.15 0.96 38.15 2.76 33.6 1.35 33.6 1.35 34.37 0.59 34.37"/><path class="cls-8" d="M57.62,85.19l-.75.55v-.8l.75-.56h.76v5.31h-.76m3.58-4.5-.75.55v-.8l.75-.56H62v5.31H61.2" transform="translate(-5.45 -2.51)"/><path class="cls-8" d="M5.69,56.49H8.52v.76H6.4v1.2a1.33,1.33,0,0,1,.85-.29,1.31,1.31,0,0,1,.95.39c.29.31.42.57.42,1.45a1.75,1.75,0,0,1-.33,1.27,1.46,1.46,0,0,1-1.15.57,1.49,1.49,0,0,1-1.55-1.38h.76a.72.72,0,0,0,.76.62c.75,0,.75-.64.75-1.14s-.14-1-.77-1a.74.74,0,0,0-.69.44H5.69" transform="translate(-5.45 -2.51)"/><path class="cls-5" d="M17.64,20.85H17.2l.58-1.16h0a.49.49,0,0,1-.21,0c-.34,0-.65-.23-.65-.76a.79.79,0,1,1,1.57,0,1,1,0,0,1-.11.45m-.28-.45c0-.31-.16-.45-.4-.45a.4.4,0,0,0-.39.45c0,.31.18.45.39.45a.39.39,0,0,0,.4-.45" transform="translate(-5.45 -2.51)"/></g></g></g></svg>