<svg xmlns="http://www.w3.org/2000/svg" xmlns:xlink="http://www.w3.org/1999/xlink" viewBox="0 0 26.92 27.8"><defs><style>.cls-1{fill:none;}.cls-2{clip-path:url(#clip-path);}.cls-3{fill:#fff;}</style><clipPath id="clip-path" transform="translate(0)"><rect class="cls-1" width="26.92" height="27.8"/></clipPath></defs><title>Asset 4</title><g id="Layer_2" data-name="Layer 2"><g id="Layer_1-2" data-name="Layer 1"><g class="cls-2"><path d="M10.42,25.91h.31v.29h0a.63.63,0,0,1,.58-.33c.45,0,.65.29.65.79v1.1h-.32v-1c0-.43-.09-.64-.37-.66s-.54.31-.54.76v.86h-.32V25.91m3.25.13a1.1,1.1,0,0,1,.58-.17c.5,0,.71.26.71.76v.77a2.67,2.67,0,0,0,0,.36h-.3v-.24h0a.64.64,0,0,1-.54.28c-.38,0-.65-.17-.65-.57s.48-.61.82-.61h.34c0-.31-.11-.48-.43-.48a.84.84,0,0,0-.51.19m.94.55h-.2c-.18,0-.61,0-.61.36a.32.32,0,0,0,.32.3.46.46,0,0,0,.49-.49m1.7-.83-.13,0c-.31,0-.51.29-.51.76v.81h-.34V25.93h.32v.3h0a.54.54,0,0,1,.48-.33h.17m1.9,0a.88.88,0,0,1,.89,1,.89.89,0,1,1-1.78,0,.88.88,0,0,1,.89-1m0,1.66c.38,0,.55-.36.55-.69s-.2-.7-.55-.7-.55.34-.55.7.17.69.55.69m-5-1.62h-.47v-.54l-.34.11v.43l-.28.28h.28v1.08c0,.37.22.53.57.53a1,1,0,0,0,.27,0v-.29a.4.4,0,0,1-.21.06.3.3,0,0,1-.29-.33v-1h.47m3.4-.28H17v1.85h-.34Zm.17-.25a.2.2,0,0,0,.21-.2.21.21,0,1,0-.42,0,.2.2,0,0,0,.21.2m-7.9-.47a1.16,1.16,0,0,1,1.16,1.3,1.17,1.17,0,1,1-2.32,0,1.16,1.16,0,0,1,1.16-1.3m0,2.29c.55,0,.79-.48.79-1s-.26-1-.79-1-.79.48-.79,1,.23,1,.79,1m-1-17.31h5V8.82h-5Zm6,0h5V8.82h-5Zm0-2.37h5V6.45h-5Zm-6,0h5V6.45h-5Zm5.67,11.32V16.86l2.31-1.29h0v.79l.15-.08.33.52.35-.51.15.09V16l.91.51v-.18l.62,0-.27-.56.16-.08-.89-.5.87-.49-.16-.09.28-.55-.61,0v-.17l-.89.5v-1l-.16.08-.34-.51-.33.51-.16-.08v1l-.34-.2v.19l-.51,0H15l-.34-.49.16-.09-.3-.17-.05,0,.87-.5-.16-.09.29-.55-.62,0v-.18l-.88.52v-1l-.16.08-.34-.51-.33.51-.16-.08v1l-.9-.51v.18l-.61,0,.28.55-.15.09.89.5,0,0-.3.17.15.09-.31.49h-.08l-.5,0v-.18l-.33.19v-1l-.16.09-.33-.51-.34.51L10,13.26v1l-.89-.51V14l-.61,0,.28.55-.16.09.87.49-.88.5.15.09-.26.55.61,0v.17l.91-.52v.44l.15-.09.35.51.33-.52.15.08v-.8h0l2.26,1.28v2.26m1.45-4.92-.47,0v.18l-.71-.4h0v2.45l.06,0,2-1.15.08-.05-.7-.39.16-.09-.31-.49M12,14.2l-.33.5.15.09-.69.4,0,0,2.05,1.15.06,0V14h0l-.7.4v-.17l-.49,0M9.28,18.28a4,4,0,0,1-1.52-3v-9H19.11v9a4,4,0,0,1-1.52,3c-1.08.81-4.16,2.51-4.16,2.51s-3.07-1.7-4.15-2.51m1.6-13.61.2.45h-.84A.22.22,0,0,1,10,4.9a.23.23,0,0,1,.22-.23m4.32.45-.21-.45h1.14l.21.45m-3.41,0-.21-.45h1.1l.21.45m3.15.14a.36.36,0,1,0,0-.72h-6.3a.36.36,0,0,0,0,.72m11.4,2.27L19.4,5.89H16.29l.11.28h2.74l2.5,2.21M24.89.47A1.11,1.11,0,0,1,25,2.13a1.06,1.06,0,0,1-.75.32,1.07,1.07,0,0,0,.1-.35l.46-.32c.15-.11.15-.27-.05-.33,0,.06-.07.07-.08.07l-.25.18c-.16.11-.39-.12-.25-.27l.31-.37c.12-.15.08-.3-.13-.32a.18.18,0,0,1-.06.1L24,1.26c-.17.2-.5.1-.39-.13l.25-.55c.08-.17,0-.31-.21-.27a.6.6,0,0,1,0,.11L23.32,1a.18.18,0,0,1-.21.08L22.94,1,23,.3c0-.19-.1-.3-.29-.19a.23.23,0,0,1,0,.11l-.06.52c0,.1-.25.07-.28.06s-.18-.11-.2-.17l-.1-.39c0-.18-.19-.24-.33-.08a.36.36,0,0,1,0,.1L22,.75c.09.24.41.34.87.53l1,.46a.37.37,0,0,1-.1.72c-.35,0-.41-.38-.38-.55-.17,0-.43.11-.18.54-.15,0-.41-.13-.39-.54-.14,0-.18,0-.23.11s-.16.74.9.74L23.17,3,22,3.11v.13l.16.35h.42a.15.15,0,1,1,0,.29h-.3l.12.27h.88c.24-.23.58-.17.63.13a1.16,1.16,0,0,1-1.23,1.14l.19.17a1.75,1.75,0,0,1-.5.23,1,1,0,0,0,.17.18,1.42,1.42,0,0,1-.46.25l.12.15a1.47,1.47,0,0,0-.4,1.2v.89l.12.11s-1.38,2.67-1.38,2.67l-.81,1.87-.3.68h.14l.3-.55s.06-.13.17-.13h0l.78-1.69,1.62-2.37,1.64,1.51a2,2,0,0,1,.76,1.88v1.59l1.61,1.81V19h.14v-.55s0-.13.17-.13h0V15.22s-.41-.25-.41-.49V12.42s0-.34.45-.34c0-.93,0-1.27-1.22-2.88-1.39-1.79-1.08-1.63-.5-4.15a2.3,2.3,0,0,0,.06-1.5L25.6,3h-.85l-.22-.27a1.51,1.51,0,0,0,.6-.29h1.55c.18,0,.28-.13.15-.3a.19.19,0,0,1-.11,0h-1c-.2,0-.21-.18-.19-.21s0,0,0,0l1.23-.38c.18-.05.23-.21.06-.33a.26.26,0,0,1-.1.05l-.86.26c-.17.05-.21-.14-.21-.17a.13.13,0,0,0,0-.06L26.48.7c.16-.1.16-.26,0-.33,0,0-.07.07-.08.07l-.57.39a.18.18,0,0,1-.24-.28l.21-.24c.12-.14.08-.3-.13-.31,0,.07-.05.09-.06.09L25.39.3a.15.15,0,0,1-.21,0l0,0L24.85.09s0,0-.07-.08c-.21,0-.22.21-.07.32l.18.15M24.7,12.59a2.13,2.13,0,0,0-.65-1.84h0l-1.74,2.6.6,2.72-1.15,2.24-.37.67h.22l.31-.55a.22.22,0,0,1,.17-.12h0l1.53-2.85s-.23,0-.23-.2v-.82l1.29-1.85M7.47,5.89,5.23,7.53v.84l2.49-2.2h2.75l.11-.28M.13,18.3a.15.15,0,0,1,.17.13V19H.44V15.87L2,14.06V12.47a1.93,1.93,0,0,1,.71-1.82L4.22,9.28h0l.21-.19.13.19h0l1.48,2.17.78,1.69h0a.22.22,0,0,1,.18.13l.3.55h.14l-.3-.68-.81-1.87s-.65-1.19-1-2h0C5.12,8.89,5,8.6,5,8.6l.12-.12V7.6a1.24,1.24,0,0,0-.22-.88l.16,0a3.09,3.09,0,0,0-.28-.4l.15-.11c-.14-.1-1.35-.87-1.38-1.48a.48.48,0,0,1,.23-.42c.05.07.17.25.31.42s.39.43.57.43V4.25H5.5L5.63,4h-.4a.14.14,0,1,1,0-.28h.53l.16-.34L5.64,3a6.78,6.78,0,0,1-.88-.1c-.63-.14-.47-.68,0-.74.28,0,.55,0,1-.1.84-.15,1.06-.85.76-1.75,0-.08-.16-.14-.28,0a3.69,3.69,0,0,1,.11.56.2.2,0,0,1-.4,0L5.8.4c0-.18-.19-.25-.33-.09a.18.18,0,0,1,0,.1l.08.43c0,.24-.34.3-.4,0L5.1.39c0-.18-.19-.25-.33-.09a.22.22,0,0,1,0,.11s.06.3.07.32c0,.43-.68.43-.64,0A2.21,2.21,0,0,1,4.3.41a.22.22,0,0,1,0-.11C4.2.14,4.05.21,4,.39L3.94.77A.43.43,0,0,0,4,1c.05.09.31.31.35.46a.61.61,0,0,1-.6.69.6.6,0,0,1-.54-.89A1.26,1.26,0,0,0,3.38,1a.67.67,0,0,0,0-.16L3.27.4C3.23.22,3.09.15,3,.31a.21.21,0,0,1,0,.1l.09.43c.05.24-.34.3-.4,0L2.57.39c0-.18-.18-.25-.32-.09,0,.07,0,.1,0,.11L2.42,1c.07.34-.46.44-.55,0L1.73.39c0-.18-.19-.25-.32-.09a.25.25,0,0,1,0,.1l.09.43c0,.24-.34.3-.4,0L1,.39C1,.2.85.14.71.29A.27.27,0,0,1,.74.4L.83.83c.05.23-.36.29-.43,0A3,3,0,0,0,.27.27C.19.19,0,.19,0,.28A1.85,1.85,0,0,1,0,.86a1,1,0,0,0,0,.3,1.12,1.12,0,0,0,1.16.89c.48,0,1,.08,1.53.1a.37.37,0,1,1,0,.73H1.92l.41.57a14.61,14.61,0,0,0-1,1.3,3.36,3.36,0,0,0-.41.91h.21a.9.9,0,0,0-.21.54h.19A1.53,1.53,0,0,0,1,6.8c.31,0,.37.19.38.28V7.8C1.27,8,1,8.65.73,9.28h0c-.16.36-.29.72-.37.93A6,6,0,0,0,.1,12.08c.45,0,.44.34.44.34v2.26c0,.32-.41.54-.41.54V18.3m3.34-3.86v.82c0,.18-.23.2-.23.2l1.53,2.85h0a.22.22,0,0,1,.17.12l.31.55h.19l-.36-.67L3.93,16.07l.63-2.72L2.83,10.76h0a2.09,2.09,0,0,0-.66,1.84M14.67.4h-.44A2,2,0,0,1,12.42.3c-.84.06-1.14.13-1.26-.08a1.25,1.25,0,0,1-.61.1c-.12.11-.1.16-.72.15a.31.31,0,0,0,.06.32c.08.09,1.73,1.62,1.82,1.71A1,1,0,0,1,11.54,4c-.09.08-.14,0-.15.22h.93l.44-.59V2.68L15,2.59c.15.07,1.29.69.71,1.22-.23.22-.31.22-.35.4h1l.41-.9a.12.12,0,0,1-.12-.1V2.52s0-.15.12-.17S16.06.41,14.67.4m-2.9,2.42a.77.77,0,0,0-.17-.25l-.49-.46-.88.56,0,.61c0,.09,0,.53.6.49l0-.73M15.32,3a2.65,2.65,0,0,0-.42-.27l-.62,0c0,.3,0,1-.57,1.18a.3.3,0,0,0-.19.29h.93a1,1,0,0,1,.4-.41A2.16,2.16,0,0,1,15.32,3M9.83,22H17v1.86H9.83Zm-9.7-.78h9.5L7.89,19.39H.13m7.63,2v.48l2,1.95V21.38m17-2H19l-1.74,1.86h9.5m-9.58.13v2.43l1.95-1.95v-.48" transform="translate(0)"/></g><polyline class="cls-3" points="1.15 19.84 0.96 20.63 0.96 20.63 0.77 19.84 0.66 19.84 0.9 20.74 1.02 20.74 1.25 19.84"/><polyline class="cls-3" points="1.29 19.84 1.29 19.94 1.51 19.94 1.51 20.74 1.61 20.74 1.61 19.94 1.82 19.94 1.82 19.84"/><rect class="cls-3" x="2.21" y="19.84" width="0.1" height="0.9"/><polyline class="cls-3" points="2.98 19.84 2.98 20.61 2.98 20.61 2.67 19.84 2.52 19.84 2.52 20.74 2.62 20.74 2.62 19.96 2.62 19.96 2.94 20.74 3.08 20.74 3.08 19.84"/><g class="cls-2"><path class="cls-3" d="M3.63,20.09a.18.18,0,0,0,0-.13.11.11,0,0,0-.09,0,.14.14,0,0,0-.12.07.52.52,0,0,0,0,.19v.24c0,.22.06.24.14.24s.13,0,.13-.19h.11c0,.29-.18.29-.23.29s-.26,0-.26-.36v-.25c0-.25.11-.33.26-.33s.22.1.21.27h-.1" transform="translate(0)"/><polyline class="cls-3" points="3.9 20.74 3.9 19.84 4.32 19.84 4.32 19.94 4.01 19.94 4.01 20.23 4.3 20.23 4.3 20.33 4.01 20.33 4.01 20.64 4.33 20.64 4.33 20.74"/><path class="cls-3" d="M4.59,20.24H4.7a.15.15,0,0,0,0-.3H4.59v.3m-.1.5v-.9h.24c.1,0,.22.05.22.26a.21.21,0,0,1-.22.24H4.59v.4" transform="translate(0)"/><rect class="cls-3" x="5.12" y="19.84" width="0.1" height="0.9"/><polyline class="cls-3" points="5.88 19.84 5.88 19.94 5.67 19.94 5.67 20.74 5.56 20.74 5.56 19.94 5.35 19.94 5.35 19.84"/><path class="cls-3" d="M19.26,20.47v0c0,.12.07.16.13.16a.14.14,0,0,0,.15-.15c0-.2-.37-.17-.37-.44a.23.23,0,0,1,.24-.25c.15,0,.23.08.22.27h-.1c0-.1,0-.17-.13-.17a.12.12,0,0,0-.12.13c0,.2.36.17.36.46a.23.23,0,0,1-.25.25c-.24,0-.24-.2-.23-.29h.1" transform="translate(0)"/><rect class="cls-3" x="19.82" y="19.84" width="0.1" height="0.9"/><path class="cls-3" d="M20.49,20.09a.18.18,0,0,0,0-.13.12.12,0,0,0-.09,0,.14.14,0,0,0-.12.07.52.52,0,0,0,0,.19v.24c0,.22.06.24.14.24s.13,0,.13-.19h.11c0,.29-.18.29-.23.29s-.26,0-.26-.36v-.25c0-.25.1-.33.26-.33s.22.1.21.27h-.1" transform="translate(0)"/><path class="cls-3" d="M21.14,20.24h.11s.14,0,.14-.15-.09-.15-.11-.15h-.14v.3m-.1.5v-.9h.23c.11,0,.23.05.23.26a.22.22,0,0,1-.23.24h-.13v.4" transform="translate(0)"/><polyline class="cls-3" points="21.65 20.74 21.65 19.84 22.07 19.84 22.07 19.94 21.76 19.94 21.76 20.23 22.05 20.23 22.05 20.33 21.76 20.33 21.76 20.64 22.08 20.64 22.08 20.74"/><path class="cls-3" d="M22.32,20.23h.16c.07,0,.11-.07.11-.15s0-.14-.11-.14h-.16v.29m0,.1v.41h-.1v-.9h.28c.14,0,.19.11.19.23a.19.19,0,0,1-.15.2h0c.1,0,.13.05.14.23a2.32,2.32,0,0,0,0,.24h-.1a.84.84,0,0,1,0-.3.11.11,0,0,0-.13-.11" transform="translate(0)"/><polyline class="cls-3" points="22.95 20.74 22.86 20.74 22.86 19.84 23.02 19.84 23.22 20.59 23.23 20.59 23.43 19.84 23.6 19.84 23.6 20.74 23.5 20.74 23.5 19.94 23.5 19.94 23.27 20.74 23.17 20.74 22.95 19.94 22.95 19.94"/><path class="cls-3" d="M24,20h0l-.13.48h.26M24,19.84h.13l.26.9h-.12l-.05-.22h-.32l-.06.22h-.1" transform="translate(0)"/><polyline class="cls-3" points="25.05 19.84 25.05 20.74 24.9 20.74 24.59 19.96 24.58 19.96 24.58 20.74 24.49 20.74 24.49 19.84 24.64 19.84 24.95 20.61 24.95 20.61 24.95 19.84"/><polyline class="cls-3" points="25.24 20.74 25.24 19.84 25.66 19.84 25.66 19.94 25.34 19.94 25.34 20.23 25.64 20.23 25.64 20.33 25.34 20.33 25.34 20.64 25.66 20.64 25.66 20.74"/><polyline class="cls-3" points="26.26 19.84 26.26 19.94 26.05 19.94 26.05 20.74 25.95 20.74 25.95 19.94 25.74 19.94 25.74 19.84"/><polyline class="cls-3" points="11.75 23.39 11.75 22.49 12.15 22.49 12.15 22.59 11.85 22.59 11.85 22.88 12.13 22.88 12.13 22.98 11.85 22.98 11.85 23.39"/><rect class="cls-3" x="12.28" y="22.49" width="0.1" height="0.9"/><path class="cls-3" d="M12.69,23.29h.1c.14,0,.19-.06.19-.27v-.18c0-.18-.05-.25-.15-.25h-.14v.7m-.1-.8h.25a.2.2,0,0,1,.21.14,1.16,1.16,0,0,1,0,.28.87.87,0,0,1-.05.36.28.28,0,0,1-.27.12h-.18" transform="translate(0)"/><polyline class="cls-3" points="13.28 23.39 13.28 22.49 13.69 22.49 13.69 22.59 13.38 22.59 13.38 22.88 13.67 22.88 13.67 22.98 13.38 22.98 13.38 23.29 13.7 23.29 13.7 23.39"/><polyline class="cls-3" points="13.85 23.39 13.85 22.49 13.95 22.49 13.95 23.29 14.24 23.29 14.24 23.39"/><rect class="cls-3" x="14.37" y="22.49" width="0.1" height="0.9"/><path class="cls-3" d="M14.75,23.12v0c0,.12.07.16.14.16s.14,0,.14-.15-.36-.17-.36-.44a.22.22,0,0,1,.24-.24c.14,0,.23.07.22.26H15c0-.1,0-.17-.12-.17s-.12,0-.12.14.36.16.36.45a.23.23,0,0,1-.25.25c-.24,0-.24-.2-.24-.29h.1" transform="translate(0)"/></g></g></g></svg>