<svg xmlns="http://www.w3.org/2000/svg" viewBox="0 0 13.27 10.8"><defs><style>.cls-1{fill:#fff;}</style></defs><title>Asset 6</title><g id="Layer_2" data-name="Layer 2"><g id="Layer_1-2" data-name="Layer 1"><path class="cls-1" d="M12.52,1.56a4.3,4.3,0,0,1-.81.16A3,3,0,0,0,12.9.23c-.25.13-.53.26-.83.38a4.24,4.24,0,0,1-.91.25,3,3,0,0,0-.88-.62A2.51,2.51,0,0,0,9.17,0,2.66,2.66,0,0,0,8.12.21,3,3,0,0,0,7.26.8a2.81,2.81,0,0,0-.58.88,2.64,2.64,0,0,0-.15,1.66,7.28,7.28,0,0,1-3.14-.82A7.54,7.54,0,0,1,.93.5,2.7,2.7,0,0,0,.56,1.88,2.76,2.76,0,0,0,.88,3.19a2.48,2.48,0,0,0,.9.95A2.37,2.37,0,0,1,1.1,4a3.32,3.32,0,0,1-.58-.22v0a2.6,2.6,0,0,0,.62,1.73,2.81,2.81,0,0,0,1.57.94l-.35.07L2,6.6a1.88,1.88,0,0,1-.5-.07A2.69,2.69,0,0,0,4,8.43,5.18,5.18,0,0,1,.65,9.58H.32a1.67,1.67,0,0,1-.32,0,8.07,8.07,0,0,0,2,.91,7.28,7.28,0,0,0,2.2.33,7.42,7.42,0,0,0,3.31-.7A7.49,7.49,0,0,0,9.91,8.28,7.88,7.88,0,0,0,11.4,5.77,7.89,7.89,0,0,0,11.91,3V2.71a6.52,6.52,0,0,0,1.36-1.42c-.25.1-.49.19-.75.27"/></g></g></svg>