<svg xmlns="http://www.w3.org/2000/svg" viewBox="0 0 19.59 19.59"><defs><style>.cls-1{fill:none;stroke:#807f83;stroke-linecap:round;stroke-linejoin:round;stroke-width:1.03px;}</style></defs><title>Asset 8</title><g id="Layer_2" data-name="Layer 2"><g id="Layer_1-2" data-name="Layer 1"><path class="cls-1" d="M2.74,5.69H5.68V2.74M7.34,7.47,3.17,3.29M16.91,14l-3-.06h0l0,3m-1.81-4.64,4.17,4.17M5.72,17l0-3h0l-3,0m4.68-1.74L3.29,16.42M14,2.77l0,3h0l3,0M12.25,7.47l4.17-4.18M1.9,11.88,4,9.8H4L1.9,7.71M6.41,9.88H.51M17.78,7.71,15.61,9.8h0l2.13,2.08m-4.56-2h5.9M12,17.74,9.88,15.61h0L7.8,17.72m2.08-4.54v5.9M7.8,1.86,9.88,4h0L12,1.88M9.88,6.41V.51"/></g></g></svg>